<svg xmlns="http://www.w3.org/2000/svg" xmlns:xlink="http://www.w3.org/1999/xlink" width="2000" zoomAndPan="magnify" viewBox="0 0 1500 1499.999933" height="2000" preserveAspectRatio="xMidYMid meet" version="1.0"><path fill="#000000" d="M 719.191406 147.441406 C 681.414062 148.636719 646.496094 152.921875 609.890625 160.84375 C 584.390625 166.363281 569.65625 170.480469 543.191406 179.488281 C 476.367188 202.234375 407.539062 240.988281 349.675781 288.445312 C 314.023438 317.691406 287.308594 344.328125 260.339844 377.53125 C 241.988281 400.125 237.265625 406.488281 222.886719 428.042969 C 206.589844 452.464844 192.546875 477.855469 178.804688 507.734375 C 163.695312 540.582031 149.109375 583.132812 141.265625 617.25 C 138.441406 629.539062 134.566406 647.085938 134.566406 647.585938 C 134.566406 648.554688 135.992188 646.726562 140.699219 639.734375 C 147.535156 629.578125 164.550781 607.535156 174.28125 596.226562 C 180.621094 588.859375 198.367188 571.539062 206.367188 564.910156 C 231.898438 543.757812 256 529.015625 286.921875 515.644531 C 306.941406 506.988281 332.964844 499.835938 356.972656 496.394531 C 373.023438 494.09375 379.921875 493.671875 399.164062 493.816406 C 409.667969 493.894531 417.320312 493.722656 417.59375 493.40625 C 417.847656 493.109375 419.351562 491.289062 420.929688 489.359375 C 430.125 478.132812 450.519531 457.023438 464.089844 444.6875 C 471.398438 438.046875 491.03125 422.519531 500.164062 416.15625 C 525.734375 398.347656 550.847656 383.929688 573.253906 374.199219 C 613.535156 356.707031 646.871094 347.738281 692.046875 342.242188 C 711.191406 339.914062 743.742188 339.210938 763.554688 340.695312 C 795.710938 343.109375 828.722656 349.71875 859 359.8125 C 874.949219 365.128906 903.867188 377.898438 917.664062 385.714844 C 918.949219 386.441406 922.628906 388.476562 925.839844 390.234375 C 929.046875 391.992188 932.332031 393.882812 933.136719 394.4375 C 933.9375 394.992188 937.351562 397.105469 940.722656 399.132812 C 944.09375 401.164062 952.761719 406.699219 959.988281 411.4375 C 967.210938 416.175781 973.636719 420.140625 974.269531 420.25 C 975.265625 420.425781 976.230469 418.445312 981.585938 405.269531 C 984.980469 396.917969 988.207031 389.066406 988.757812 387.824219 C 989.308594 386.582031 989.757812 385.46875 989.757812 385.355469 C 989.757812 384.160156 1001.222656 361.230469 1005.789062 353.296875 C 1010.246094 345.546875 1022.574219 327.023438 1027.167969 321.175781 C 1041.261719 303.230469 1059.039062 285.40625 1076.132812 272.082031 C 1080.960938 268.316406 1084.910156 265.046875 1084.910156 264.808594 C 1084.910156 263.765625 1065.839844 250.449219 1049.007812 239.742188 C 1034.691406 230.636719 1013.757812 218.53125 1000.691406 211.796875 C 990.84375 206.722656 965.402344 194.769531 955.316406 190.476562 C 931.769531 180.453125 900.023438 169.773438 875.925781 163.773438 C 822.867188 150.554688 775.78125 145.648438 719.191406 147.441406 M 703.722656 161.21875 C 690.441406 161.949219 663.386719 164.707031 652.644531 166.421875 C 649.753906 166.882812 643.1875 167.929688 638.050781 168.75 C 618.179688 171.910156 594.917969 177.203125 575.296875 183.03125 C 571.925781 184.03125 566.539062 185.621094 563.328125 186.566406 C 556.792969 188.492188 539.207031 194.523438 534.726562 196.375 C 533.121094 197.039062 527.339844 199.351562 521.882812 201.511719 C 509.425781 206.441406 495.394531 212.570312 483.449219 218.304688 C 468.214844 225.613281 444.921875 238.300781 429.652344 247.605469 C 368.101562 285.09375 312.59375 333.535156 267.382812 389.210938 C 244.917969 416.875 223.027344 449.828125 207.183594 479.835938 C 196.324219 500.394531 187.128906 519.976562 182.417969 532.574219 C 181.695312 534.5 180.335938 538.050781 179.394531 540.457031 C 173.242188 556.199219 170.460938 563.976562 166.753906 575.789062 C 162.878906 588.128906 162.609375 587.863281 170.835938 579.835938 C 188.710938 562.390625 205.6875 548.253906 224.171875 535.429688 C 242.460938 522.738281 294.25 491.300781 308.910156 483.992188 L 314.257812 481.328125 L 354.148438 480.78125 C 376.089844 480.480469 397.351562 480.398438 401.394531 480.597656 C 405.441406 480.796875 409.441406 480.785156 410.289062 480.574219 C 411.304688 480.320312 413.769531 477.859375 417.492188 473.386719 C 431.773438 456.226562 458.832031 431.023438 481.3125 413.941406 C 517.351562 386.550781 558.320312 364.050781 596.601562 350.625 C 633.722656 337.605469 666.167969 330.863281 706.640625 327.761719 C 719.324219 326.789062 756.460938 326.800781 767.058594 327.777344 C 781.441406 329.105469 786.09375 329.675781 797.121094 331.457031 C 822.765625 335.597656 838.40625 339.453125 862.5 347.5625 C 881.027344 353.796875 894.695312 359.511719 912.996094 368.664062 C 932.015625 378.183594 941.238281 383.5 960.527344 396.074219 C 964.199219 398.464844 967.511719 400.542969 967.894531 400.6875 C 968.769531 401.023438 969.707031 398.65625 972.804688 388.332031 C 974.15625 383.835938 977.058594 374.507812 979.253906 367.601562 C 982.398438 357.703125 985.535156 347.800781 988.664062 337.894531 C 991.644531 328.457031 994.558594 320.132812 995.140625 319.390625 C 995.726562 318.648438 1000.597656 314.628906 1005.96875 310.457031 C 1013.902344 304.289062 1021.828125 298.109375 1029.746094 291.925781 C 1037.449219 285.902344 1047.699219 277.902344 1052.523438 274.144531 C 1061.996094 266.761719 1063.03125 265.789062 1062.4375 264.828125 C 1061.625 263.515625 1042.878906 251.253906 1026.246094 241.164062 C 1002.4375 226.71875 971.703125 211.449219 943.03125 199.816406 C 938.710938 198.0625 934.519531 196.355469 933.71875 196.019531 C 914.960938 188.160156 883.050781 178.566406 853.746094 171.976562 C 843.515625 169.675781 840.847656 169.179688 823.972656 166.460938 C 790.722656 161.101562 743.3125 159.035156 703.722656 161.21875 M 705.765625 174.019531 C 637.878906 178.492188 577.132812 192.695312 517.210938 218.101562 C 451.453125 245.980469 392.5625 284.050781 337.363281 334.359375 C 327.832031 343.046875 306.902344 364.285156 298.273438 374.027344 C 258.1875 419.28125 222.960938 473.675781 201.699219 523.148438 C 198.128906 531.457031 195.355469 538.398438 195.53125 538.574219 C 195.710938 538.75 199.0625 536.4375 202.984375 533.429688 C 218.402344 521.609375 252.941406 499.566406 284.589844 481.351562 C 291.8125 477.195312 298.5625 473.152344 299.589844 472.375 C 300.613281 471.59375 303.21875 468.261719 305.375 464.972656 C 320.101562 442.527344 347.625 409.351562 369.28125 387.945312 C 425.175781 332.699219 495.777344 287.632812 565.082031 262.957031 C 593.585938 252.808594 609.464844 248.277344 636.589844 242.554688 C 659 237.828125 685.847656 234.535156 712.769531 233.214844 C 726.472656 232.542969 759.464844 232.921875 769.035156 233.863281 C 772.121094 234.167969 779.113281 234.828125 784.570312 235.339844 C 790.027344 235.847656 796.859375 236.632812 799.746094 237.089844 C 802.636719 237.546875 808.808594 238.453125 813.464844 239.105469 C 821.519531 240.230469 825.207031 240.945312 844.113281 245.050781 C 852.28125 246.824219 867.328125 250.769531 876.308594 253.488281 C 882.039062 255.226562 905.6875 263.675781 915.078125 267.339844 C 935.863281 275.453125 975.121094 295.148438 985.351562 302.589844 C 987.261719 303.980469 989.230469 305.109375 989.730469 305.101562 C 990.226562 305.09375 992.210938 303.765625 994.136719 302.148438 C 996.0625 300.53125 1001.578125 296.15625 1006.394531 292.421875 C 1011.210938 288.691406 1018.171875 283.234375 1021.863281 280.296875 C 1025.558594 277.359375 1031.140625 273.039062 1034.269531 270.695312 C 1037.398438 268.351562 1039.960938 266.257812 1039.960938 266.042969 C 1039.960938 265.136719 1019.011719 252.292969 1002.308594 242.960938 C 973.242188 226.722656 935.328125 209.886719 906.867188 200.578125 C 888.222656 194.484375 882.933594 192.949219 864.503906 188.300781 C 836.28125 181.183594 811.960938 177.34375 777.273438 174.523438 C 761.910156 173.277344 721.371094 172.988281 705.765625 174.019531 M 1255.363281 242.683594 C 1219.621094 244.289062 1188.621094 250.289062 1160.796875 260.992188 C 1135.699219 270.648438 1107.800781 287.535156 1086.996094 305.660156 C 1070.957031 319.636719 1054.351562 338.554688 1041.210938 357.820312 C 1035.914062 365.589844 1026.589844 382.957031 1020.121094 397.09375 C 1017.476562 402.875 1014.261719 409.839844 1012.980469 412.566406 C 1011.023438 416.746094 1009.078125 420.933594 1007.148438 425.125 C 1005.03125 429.710938 1002.890625 434.285156 1000.726562 438.847656 C 999.121094 442.21875 996.8125 447.210938 995.597656 449.941406 C 994.386719 452.671875 991.238281 459.375 988.597656 464.832031 C 985.960938 470.292969 981.566406 479.621094 978.835938 485.566406 C 976.105469 491.507812 972.6875 498.863281 971.246094 501.914062 C 969.804688 504.96875 963.03125 519.550781 956.195312 534.328125 C 949.359375 549.101562 941.078125 566.839844 937.792969 573.746094 C 934.507812 580.648438 930.175781 589.847656 928.164062 594.183594 C 926.152344 598.519531 923.007812 605.21875 921.179688 609.074219 C 919.347656 612.929688 917.3125 617.265625 916.652344 618.710938 C 915.992188 620.15625 913.390625 625.742188 910.867188 631.121094 C 908.347656 636.503906 906.28125 641.027344 906.28125 641.171875 C 906.28125 641.320312 904.679688 644.800781 902.722656 648.910156 C 900.761719 653.015625 893.699219 668.070312 887.023438 682.363281 C 880.351562 696.65625 873.152344 711.988281 871.03125 716.433594 C 868.90625 720.878906 867.171875 724.605469 867.171875 724.710938 C 867.171875 724.816406 865.828125 727.75 864.183594 731.226562 C 862.546875 734.695312 860.914062 738.164062 859.289062 741.636719 C 858.238281 743.882812 855.742188 749.140625 853.746094 753.316406 C 851.746094 757.492188 845.773438 770.238281 840.472656 781.636719 C 835.039062 793.324219 829.589844 805.003906 824.125 816.675781 C 815.183594 835.730469 805.195312 857.097656 798.875 870.695312 C 796.039062 876.796875 792.410156 884.550781 790.816406 887.921875 C 786.933594 896.121094 783.695312 903.148438 783.695312 903.367188 C 783.695312 903.464844 781.828125 907.453125 779.550781 912.230469 C 777.269531 917.007812 770.941406 930.507812 765.488281 942.230469 C 750.953125 973.488281 749.675781 976.101562 748.945312 976.101562 C 748.578125 976.101562 745.230469 969.859375 741.507812 962.230469 C 734.417969 947.695312 717.664062 913.644531 698.914062 875.65625 C 692.8125 863.292969 685.585938 848.578125 682.855469 842.957031 C 680.128906 837.335938 673.425781 823.667969 667.960938 812.589844 C 644.835938 765.6875 633.402344 742.4375 621.011719 717.109375 C 584.957031 643.417969 582.488281 638.589844 575.386719 627.761719 C 566.542969 614.285156 561.867188 608.273438 551.234375 596.703125 C 530.488281 574.125 503.761719 555.324219 476.039062 543.804688 C 447.09375 531.773438 420.90625 526.441406 390.832031 526.453125 C 359.164062 526.464844 331.457031 532.265625 298.003906 545.890625 C 266.179688 558.847656 232.769531 581.859375 206.957031 608.605469 C 176.523438 640.136719 155.058594 675.265625 141.546875 715.648438 C 132.96875 741.285156 128.65625 761.328125 125.394531 790.691406 C 124.609375 797.769531 124.359375 804.703125 124.363281 819.304688 C 124.371094 838.246094 124.691406 844.066406 126.996094 866.710938 C 130.257812 898.8125 136.480469 932.421875 145.03125 964.128906 C 148.386719 976.574219 156.585938 1001.796875 162.019531 1016.394531 C 172.503906 1044.566406 187.261719 1076.171875 201.695312 1101.359375 C 204.585938 1106.40625 206.949219 1110.617188 206.949219 1110.71875 C 206.949219 1111.285156 218.09375 1128.914062 226.136719 1141.070312 C 237.898438 1158.847656 261.957031 1189.546875 279.109375 1208.671875 C 288.996094 1219.691406 311.898438 1242.589844 322.824219 1252.382812 C 360.019531 1285.714844 396.875 1312.085938 439.105469 1335.582031 C 452.105469 1342.816406 480.003906 1356.785156 490.070312 1361.101562 C 513.097656 1370.976562 525.636719 1375.738281 547.136719 1382.78125 C 593.515625 1397.976562 638.941406 1407.1875 691.328125 1412.027344 C 696.378906 1412.496094 701.890625 1413.035156 703.574219 1413.230469 C 706.089844 1413.515625 706.640625 1413.417969 706.640625 1412.6875 C 706.640625 1412.195312 704.042969 1406.59375 700.871094 1400.234375 C 697.699219 1393.878906 694.570312 1387.496094 693.914062 1386.050781 C 693.261719 1384.605469 688.765625 1375.308594 683.921875 1365.394531 C 679.078125 1355.476562 675.117188 1347.300781 675.117188 1347.21875 C 675.117188 1346.941406 653.664062 1302.152344 641.550781 1277.136719 C 638.4375 1270.714844 634.109375 1261.648438 631.929688 1256.992188 C 629.75 1252.335938 624.035156 1240.246094 619.234375 1230.128906 C 614.429688 1220.011719 608.839844 1208.113281 606.8125 1203.6875 C 604.785156 1199.261719 602.539062 1195.058594 601.824219 1194.34375 C 601.105469 1193.628906 597.40625 1191.886719 593.601562 1190.46875 C 557.550781 1177.03125 531.695312 1164.121094 504.820312 1146.148438 C 494.464844 1139.222656 478.449219 1127.511719 471.976562 1122.128906 C 443.917969 1098.808594 418.289062 1072.265625 399.773438 1047.339844 C 392.828125 1037.996094 378.53125 1016.628906 375.351562 1010.847656 C 374.113281 1008.597656 370.949219 1002.949219 368.320312 998.292969 C 354.382812 973.613281 340.636719 941.085938 333.070312 914.890625 C 319.703125 868.585938 314.535156 826.011719 317.570312 787.1875 C 318.488281 775.480469 318.8125 772.972656 320.75 762.660156 C 323.199219 749.609375 327.726562 737.515625 333.300781 729.128906 C 336.386719 724.484375 343.046875 718.054688 347.34375 715.574219 C 358.988281 708.84375 374.316406 709.214844 388.496094 716.574219 C 395.089844 719.996094 399.992188 723.769531 406.164062 730.171875 C 414.878906 739.21875 414.46875 738.460938 454.488281 819.304688 C 463.867188 838.253906 474.890625 860.589844 478.980469 868.941406 C 483.070312 877.292969 488.582031 888.460938 491.230469 893.761719 C 493.875 899.058594 504.910156 921.398438 515.75 943.398438 C 535.9375 984.363281 555.035156 1022.992188 581.871094 1077.128906 C 604.347656 1122.472656 646.652344 1208.058594 651.726562 1218.445312 C 666.789062 1249.289062 752.574219 1420.15625 753.085938 1420.324219 C 753.578125 1420.484375 758.59375 1410.851562 758.59375 1409.746094 C 758.59375 1409.589844 761.117188 1404.257812 764.203125 1397.898438 C 770.359375 1385.21875 779.609375 1365.6875 779.609375 1365.378906 C 779.609375 1365.269531 781.679688 1360.875 784.210938 1355.613281 C 786.742188 1350.351562 793.683594 1335.667969 799.628906 1322.980469 C 805.578125 1310.292969 812.574219 1295.488281 815.175781 1290.082031 C 817.777344 1284.675781 822.425781 1274.820312 825.503906 1268.183594 C 830.230469 1258.019531 834.96875 1247.867188 839.726562 1237.71875 C 844.46875 1227.601562 848.9375 1218.011719 849.65625 1216.40625 C 850.375 1214.800781 853.007812 1209.148438 855.503906 1203.851562 C 858.339844 1197.820312 861.164062 1191.789062 863.972656 1185.746094 C 870.667969 1171.332031 888.195312 1133.773438 890.953125 1127.933594 C 892.394531 1124.882812 896.273438 1116.605469 899.578125 1109.539062 C 902.882812 1102.472656 906.699219 1094.324219 908.058594 1091.433594 C 909.417969 1088.542969 913.253906 1080.332031 916.578125 1073.1875 C 930.570312 1043.125 935.003906 1033.636719 939.84375 1023.402344 C 942.65625 1017.460938 945.410156 1011.546875 945.96875 1010.261719 C 947.019531 1007.851562 958.082031 984.164062 962.746094 974.347656 C 964.195312 971.296875 969.519531 959.867188 974.582031 948.945312 C 994.121094 906.796875 1002.699219 888.3125 1008.738281 875.367188 C 1012.183594 867.976562 1016.695312 858.253906 1018.765625 853.757812 C 1026.949219 835.984375 1028.65625 832.285156 1034.273438 820.179688 C 1042.917969 801.542969 1047.710938 791.269531 1053.066406 779.886719 C 1055.714844 774.265625 1058.289062 768.746094 1058.789062 767.621094 C 1060.839844 763.007812 1067.820312 747.996094 1072.367188 738.425781 C 1075.035156 732.804688 1078.917969 724.527344 1080.988281 720.027344 C 1083.0625 715.53125 1090.796875 698.84375 1098.179688 682.945312 C 1107.789062 662.222656 1117.382812 641.492188 1126.957031 620.753906 C 1135.40625 602.445312 1142.707031 587.007812 1143.183594 586.445312 C 1144 585.480469 1148.945312 585.421875 1231.777344 585.421875 C 1280.03125 585.421875 1319.636719 585.21875 1319.792969 584.964844 C 1320.328125 584.097656 1308 548.597656 1301.5625 532.476562 C 1295.445312 517.144531 1282.003906 488.675781 1271.96875 469.796875 C 1262.050781 451.132812 1249.144531 429.984375 1237.558594 413.414062 C 1233.226562 407.210938 1229.679688 401.777344 1229.679688 401.335938 C 1229.679688 400.472656 1233.253906 392.597656 1253.613281 348.621094 C 1260.75 333.207031 1268.527344 316.328125 1270.894531 311.113281 C 1273.785156 304.773438 1276.707031 298.445312 1279.660156 292.136719 C 1283.742188 283.4375 1301.738281 244.484375 1302.464844 242.777344 C 1302.707031 242.203125 1298.855469 242.066406 1284.175781 242.136719 C 1273.949219 242.183594 1260.984375 242.433594 1255.363281 242.683594 M 727.363281 251.785156 C 685.644531 253.816406 669.101562 255.738281 637.171875 262.261719 C 595.871094 270.699219 552.433594 286.222656 513.925781 306.3125 C 495.617188 315.867188 492.6875 317.53125 474.890625 328.464844 C 435.890625 352.433594 397.128906 385.105469 363.679688 422.207031 C 353.671875 433.304688 331.175781 461.125 328.199219 466.074219 C 327.910156 466.5625 337.871094 466.664062 366.46875 466.464844 L 405.132812 466.195312 L 406.828125 464.347656 L 417.042969 453.210938 C 433.761719 434.992188 459.816406 411.964844 480.402344 397.226562 C 541.890625 353.191406 603.730469 327.488281 672.492188 317.378906 C 712.894531 311.4375 757.203125 311.410156 796.828125 317.300781 C 850.746094 325.3125 901.070312 343.824219 951.4375 374.171875 C 956.203125 377.046875 960.304688 379.175781 960.546875 378.902344 C 960.964844 378.433594 969.019531 354.019531 972.753906 341.90625 C 973.691406 338.855469 975.316406 333.601562 976.359375 330.226562 C 977.40625 326.855469 978.285156 323.203125 978.316406 322.109375 C 978.382812 319.820312 978.71875 320.054688 963.488281 311.675781 C 918.15625 286.730469 874.847656 270.625 828.351562 261.417969 C 799.089844 255.621094 788.660156 254.351562 753.339844 252.277344 C 739.238281 251.449219 735.609375 251.382812 727.363281 251.785156 M 1246.902344 256.375 C 1228.1875 258.101562 1224.148438 258.613281 1212.386719 260.746094 C 1192.941406 264.269531 1180.34375 267.898438 1159.660156 275.933594 C 1143.75 282.113281 1118.15625 297.355469 1102.128906 310.1875 C 1094.179688 316.554688 1078.964844 331.347656 1071.761719 339.71875 C 1056.261719 357.726562 1042.582031 379.347656 1034.171875 399.136719 C 1033.417969 400.902344 1030.730469 406.515625 1028.195312 411.613281 C 1025.660156 416.707031 1022.546875 423.316406 1021.277344 426.300781 C 1018.742188 432.257812 1013.835938 443.070312 1009.753906 451.695312 C 1006.074219 459.460938 1003.859375 464.191406 994.855469 483.519531 C 990.515625 492.835938 985 504.527344 982.597656 509.507812 C 980.195312 514.484375 975.464844 524.601562 972.085938 531.988281 C 968.707031 539.378906 964.242188 548.96875 962.164062 553.304688 C 957.804688 562.40625 942.734375 594.546875 937.792969 605.277344 C 935.796875 609.621094 933.777344 613.953125 931.742188 618.277344 C 930.261719 621.410156 929.046875 624.082031 929.046875 624.21875 C 929.046875 624.355469 927.109375 628.492188 924.734375 633.414062 C 922.363281 638.335938 913.664062 656.945312 905.410156 674.769531 C 885.277344 718.238281 883.96875 721.046875 877.230469 735.210938 C 874.023438 741.957031 869.359375 751.941406 866.867188 757.402344 C 864.375 762.863281 860.140625 771.894531 857.457031 777.472656 C 854.773438 783.050781 852.578125 787.695312 852.578125 787.792969 C 852.578125 787.890625 851.238281 790.816406 849.597656 794.292969 C 847.371094 799.027344 845.152344 803.761719 842.941406 808.5 C 840.917969 812.835938 837.246094 820.589844 834.777344 825.726562 C 832.3125 830.867188 829.683594 836.515625 828.933594 838.285156 C 827.722656 841.152344 822.074219 853.199219 813.605469 870.984375 C 812 874.359375 807.992188 882.898438 804.703125 889.964844 C 801.414062 897.03125 797.671875 905.046875 796.390625 907.777344 C 787.378906 926.949219 784.265625 933.636719 780.765625 941.355469 C 778.582031 946.171875 774.25 955.5 771.136719 962.085938 C 768.023438 968.667969 764.21875 976.816406 762.679688 980.1875 C 756.359375 994.046875 749.867188 1007.050781 749.269531 1007.050781 C 748.917969 1007.050781 744.46875 998.578125 739.378906 988.21875 C 734.292969 977.859375 724.417969 957.824219 717.4375 943.691406 C 710.457031 929.558594 701.789062 911.953125 698.179688 904.5625 C 694.566406 897.175781 684.746094 877.253906 676.359375 860.289062 C 667.972656 843.324219 661.105469 829.328125 661.105469 829.1875 C 661.105469 828.9375 654.582031 815.660156 626.398438 758.570312 C 618.003906 741.550781 609.632812 724.519531 601.289062 707.472656 C 594.714844 694.039062 588.144531 680.609375 581.574219 667.179688 C 569.980469 643.503906 565.652344 635.96875 557.257812 624.839844 C 540.023438 602.003906 519.835938 583.230469 498.855469 570.542969 C 478.464844 558.207031 456.871094 549.292969 436.65625 544.859375 C 425.726562 542.460938 424.847656 542.304688 417.167969 541.347656 C 395.945312 538.714844 381.234375 538.921875 358.285156 542.1875 C 341.9375 544.515625 319.113281 551.171875 302.683594 558.402344 C 260.238281 577.09375 227.402344 602.359375 198.148438 638.832031 C 185.09375 655.109375 167.890625 684.15625 160.949219 701.632812 C 156.210938 713.574219 152.371094 724.773438 148.644531 737.546875 C 145.539062 748.195312 142.039062 765.925781 139.886719 781.929688 C 136.839844 804.566406 137.539062 844.480469 141.566406 877.933594 C 144.703125 903.972656 147.480469 919.246094 153.523438 943.691406 C 159.941406 969.644531 164.433594 984.398438 173.960938 1010.847656 C 179.332031 1025.746094 190.355469 1050.957031 199.449219 1069.148438 C 221.429688 1113.097656 254.375 1161.308594 287.71875 1198.300781 C 295.640625 1207.09375 316.816406 1228.460938 327.785156 1238.734375 C 338.175781 1248.464844 359.777344 1266.632812 372.152344 1276.046875 C 418.417969 1311.25 476.148438 1343.117188 528.089844 1362.125 C 531.472656 1363.363281 534.851562 1364.613281 538.226562 1365.875 C 541.894531 1367.253906 561.902344 1373.710938 570.917969 1376.421875 C 590.792969 1382.402344 632.507812 1391.539062 652.058594 1394.195312 C 654.949219 1394.585938 659.675781 1395.269531 662.566406 1395.714844 C 670.027344 1396.855469 685.660156 1398.46875 686 1398.132812 C 686.324219 1397.808594 648.488281 1340.792969 638.265625 1326.191406 C 637.140625 1324.585938 633.023438 1318.542969 629.113281 1312.761719 C 625.207031 1306.980469 621.078125 1300.933594 619.9375 1299.328125 C 616.925781 1295.09375 615.34375 1291.695312 614.226562 1287.066406 C 613.683594 1284.816406 610.890625 1273.125 608.023438 1261.078125 C 605.15625 1249.035156 601.753906 1234.84375 600.464844 1229.542969 C 599.175781 1224.246094 597.433594 1216.886719 596.589844 1213.195312 C 595.746094 1209.5 594.652344 1206.027344 594.15625 1205.476562 C 593.65625 1204.929688 592.296875 1204.171875 591.132812 1203.796875 C 588.136719 1202.832031 577.097656 1198.691406 575.003906 1197.746094 C 574.039062 1197.3125 570.324219 1195.753906 566.75 1194.285156 C 550.492188 1187.617188 541.136719 1183.109375 525.386719 1174.347656 C 499.378906 1159.886719 483.445312 1148.980469 460.9375 1130.253906 C 418.414062 1094.863281 382.824219 1052.117188 357.050781 1005.46875 C 353.613281 999.238281 341.46875 975.128906 339.175781 969.96875 C 332.359375 954.648438 321.765625 924.609375 317.316406 907.996094 C 306.328125 866.96875 301.328125 822.425781 303.886719 788.386719 C 305.25 770.253906 309.070312 750.078125 313.140625 739.519531 C 318.691406 725.125 327.277344 713.183594 336.652344 706.816406 C 357.050781 692.957031 381.644531 694.824219 405.660156 712.050781 C 414.019531 718.042969 421.425781 726.253906 427.847656 736.644531 C 430.683594 741.226562 454.90625 789.507812 480.304688 841.203125 C 484.644531 850.035156 495.476562 871.980469 504.378906 889.964844 C 513.28125 907.953125 524.042969 929.761719 528.292969 938.433594 C 544.757812 972.015625 578.5625 1040.4375 601.863281 1087.347656 C 615.261719 1114.328125 630.367188 1144.8125 635.425781 1155.089844 L 655.117188 1195.089844 C 663.269531 1211.652344 724.488281 1334.742188 747.980469 1381.816406 C 750.105469 1386.070312 752.179688 1389.554688 752.589844 1389.554688 C 753.171875 1389.554688 759.175781 1378.144531 759.175781 1377.039062 C 759.175781 1376.902344 762.226562 1370.398438 765.957031 1362.585938 C 769.683594 1354.773438 774.253906 1345.097656 776.109375 1341.082031 C 777.964844 1337.070312 780.984375 1330.628906 782.820312 1326.777344 C 784.65625 1322.921875 788.726562 1314.25 791.871094 1307.503906 C 798.363281 1293.566406 800.558594 1288.886719 807.332031 1274.511719 C 809.980469 1268.890625 813.996094 1260.347656 816.257812 1255.53125 C 818.515625 1250.714844 822.773438 1241.648438 825.71875 1235.382812 C 828.664062 1229.121094 836.015625 1213.355469 842.058594 1200.347656 C 848.097656 1187.339844 854.789062 1173.058594 856.921875 1168.613281 C 859.054688 1164.164062 863.445312 1154.835938 866.675781 1147.882812 C 873.132812 1133.984375 879.738281 1119.882812 884.230469 1110.414062 C 886.941406 1104.695312 893.007812 1091.703125 896.089844 1085.011719 C 896.828125 1083.40625 899.84375 1076.96875 902.789062 1070.703125 C 909.136719 1057.199219 925.542969 1022.070312 936.191406 999.167969 C 940.371094 990.175781 944.972656 980.320312 946.417969 977.269531 C 947.859375 974.21875 949.761719 970.144531 950.648438 968.21875 C 951.53125 966.289062 953.5 962.085938 955.019531 958.875 C 958.324219 951.898438 980.316406 904.578125 995.59375 871.570312 C 1001.613281 858.5625 1008.644531 843.453125 1011.21875 837.992188 C 1013.789062 832.53125 1018.789062 821.757812 1022.328125 814.050781 C 1025.863281 806.339844 1030.5 796.394531 1032.625 791.945312 C 1034.753906 787.496094 1037.121094 782.371094 1037.886719 780.554688 C 1038.65625 778.742188 1040.484375 774.828125 1041.957031 771.855469 C 1043.429688 768.886719 1044.632812 766.34375 1044.632812 766.207031 C 1044.632812 766.074219 1045.976562 763.117188 1047.617188 759.636719 C 1051.792969 750.804688 1061.007812 730.984375 1073.359375 704.261719 C 1078.761719 692.582031 1084.167969 680.902344 1089.582031 669.222656 C 1092.710938 662.480469 1097.824219 651.441406 1100.945312 644.695312 C 1104.964844 636.023438 1109.007812 627.363281 1113.070312 618.710938 C 1116.617188 611.164062 1120.894531 601.964844 1122.570312 598.269531 C 1124.246094 594.578125 1130.117188 581.890625 1135.621094 570.074219 C 1141.121094 558.257812 1145.621094 548.503906 1145.621094 548.394531 C 1145.621094 548.285156 1147.035156 545.207031 1148.761719 541.554688 C 1153.792969 530.890625 1158.785156 520.210938 1163.730469 509.507812 C 1165.582031 505.492188 1168.734375 498.792969 1170.734375 494.617188 C 1172.734375 490.441406 1176.535156 482.292969 1179.183594 476.511719 C 1181.828125 470.730469 1186.886719 459.824219 1190.429688 452.277344 C 1193.96875 444.730469 1201.394531 428.832031 1206.9375 416.949219 L 1221.636719 385.414062 C 1224.183594 379.953125 1227.191406 373.515625 1228.324219 371.105469 C 1229.773438 368.003906 1231.195312 364.890625 1232.589844 361.761719 C 1233.804688 359.03125 1236.367188 353.515625 1238.285156 349.5 C 1240.207031 345.484375 1243.757812 337.863281 1246.179688 332.5625 C 1255.917969 311.261719 1260.675781 300.914062 1264.578125 292.5625 C 1276.574219 266.898438 1281.457031 256.082031 1281.171875 255.796875 C 1280.570312 255.195312 1255.042969 255.625 1246.902344 256.375 M 1228.804688 272.171875 C 1197.152344 276.957031 1178.570312 282.457031 1154.035156 294.292969 C 1129.394531 306.179688 1110.390625 319.832031 1091.289062 339.367188 C 1082.789062 348.0625 1077.566406 354.234375 1071.105469 363.222656 C 1060.296875 378.265625 1055.363281 387.449219 1038.773438 423.414062 C 1030.902344 440.480469 1010.078125 485.207031 1004.667969 496.660156 C 1002.015625 502.28125 999.175781 508.324219 998.359375 510.089844 C 997.074219 512.871094 983.6875 541.5625 977.652344 554.472656 C 976.515625 556.902344 975.394531 559.335938 974.289062 561.777344 C 973.5625 563.382812 970.605469 569.691406 967.714844 575.792969 C 964.820312 581.894531 957.070312 598.445312 950.492188 612.578125 C 943.910156 626.710938 937.605469 640.246094 936.480469 642.652344 C 934.132812 647.710938 931.792969 652.769531 929.460938 657.835938 C 926.722656 663.777344 922.464844 672.84375 919.996094 677.984375 C 917.527344 683.121094 912.746094 693.371094 909.367188 700.757812 C 905.992188 708.144531 902.046875 716.6875 900.601562 719.738281 C 899.15625 722.789062 893.832031 734.21875 888.765625 745.140625 C 883.699219 756.058594 878.058594 768.148438 876.226562 772.003906 C 874.398438 775.855469 869.273438 786.761719 864.84375 796.238281 C 860.410156 805.710938 855.601562 815.960938 854.152344 819.011719 C 852.703125 822.0625 848.902344 830.210938 845.703125 837.117188 C 830.417969 870.105469 827.8125 875.707031 825.609375 880.328125 C 824.304688 883.058594 822.644531 886.605469 821.921875 888.214844 C 821.195312 889.820312 818.996094 894.515625 817.035156 898.648438 C 815.070312 902.78125 813.464844 906.238281 813.464844 906.332031 C 813.464844 906.421875 811.601562 910.398438 809.324219 915.167969 C 807.046875 919.933594 799.136719 936.84375 791.746094 952.742188 C 784.359375 968.640625 776.082031 986.378906 773.359375 992.160156 C 770.632812 997.941406 764.757812 1010.554688 760.300781 1020.191406 C 750.570312 1041.230469 750.878906 1040.628906 749.816406 1040.628906 C 748.925781 1040.628906 744.023438 1031.09375 725.066406 992.453125 C 718.851562 979.792969 712.621094 967.140625 706.378906 954.496094 C 701.855469 945.339844 696.363281 934.101562 694.179688 929.519531 C 691.996094 924.933594 681.953125 904.488281 671.863281 884.078125 C 661.773438 863.667969 653.519531 846.894531 653.519531 846.800781 C 653.519531 846.707031 646.398438 832.203125 637.699219 814.570312 C 629 796.941406 619.25 777.128906 616.042969 770.542969 C 611.902344 762.070312 607.753906 753.601562 603.589844 745.140625 C 599.953125 737.753906 588.429688 714.289062 577.984375 692.996094 C 558.324219 652.925781 555.457031 647.535156 547.804688 636.230469 C 527.273438 605.898438 494.21875 579.878906 459.652344 566.84375 C 419.867188 551.839844 384.445312 549.644531 343.6875 559.660156 C 325.464844 564.140625 311.824219 569.132812 295.515625 577.296875 C 283.320312 583.402344 278.414062 586.242188 267.976562 593.246094 C 249.027344 605.957031 233.246094 619.816406 216.71875 638.257812 C 210.371094 645.335938 208.898438 647.542969 212.351562 644.796875 C 217.085938 641.027344 234.859375 629.488281 242.207031 625.410156 C 258.933594 616.132812 278.660156 608.660156 298.308594 604.167969 C 342.417969 594.074219 385.054688 597.628906 424.21875 614.671875 C 435.609375 619.628906 436.660156 620.160156 445.683594 625.5625 C 464.097656 636.578125 477.617188 647.8125 490.507812 662.800781 C 500.007812 673.84375 506.386719 684.023438 516.488281 704.261719 C 525.757812 722.832031 547.40625 766.640625 553.28125 778.71875 C 556.328125 784.980469 564.792969 802.195312 572.09375 816.96875 C 579.390625 831.742188 588.1875 849.613281 591.636719 856.679688 C 595.085938 863.746094 609.929688 893.703125 624.621094 923.25 C 652.539062 979.398438 676.285156 1027.453125 676.285156 1027.804688 C 676.285156 1027.914062 683.578125 1042.671875 692.488281 1060.597656 C 701.402344 1078.523438 711.496094 1098.96875 714.925781 1106.035156 C 734.9375 1147.296875 747.085938 1171.953125 748.652344 1174.503906 C 749.296875 1175.550781 750.214844 1176.402344 750.699219 1176.402344 C 751.742188 1176.402344 755.105469 1169.847656 763.191406 1152.050781 C 766.375 1145.050781 771.632812 1133.722656 774.878906 1126.875 C 778.121094 1120.03125 780.777344 1114.34375 780.777344 1114.234375 C 780.777344 1113.960938 789.375 1095.597656 794.5625 1084.789062 C 796.933594 1079.851562 798.871094 1075.722656 798.871094 1075.617188 C 798.871094 1075.324219 811.257812 1048.886719 814.03125 1043.257812 C 815.378906 1040.527344 819.191406 1032.382812 822.5 1025.15625 C 825.8125 1017.929688 832.125 1004.394531 836.523438 995.082031 C 844.726562 977.71875 851.242188 963.804688 853.957031 957.839844 C 854.800781 955.988281 856.914062 951.519531 858.648438 947.914062 C 860.539062 943.980469 862.414062 940.042969 864.273438 936.097656 C 869.640625 924.675781 875.976562 911.144531 879.925781 902.691406 C 882.292969 897.621094 884.671875 892.5625 887.070312 887.507812 C 888.71875 884.039062 892.628906 875.6875 895.761719 868.941406 C 914.476562 828.648438 924.390625 807.277344 927.597656 800.324219 C 929.597656 795.988281 934.84375 784.691406 939.253906 775.214844 C 944.234375 764.515625 949.199219 753.808594 954.148438 743.097656 C 957.929688 734.90625 963.414062 723.160156 966.34375 716.992188 C 969.269531 710.828125 971.664062 705.660156 971.664062 705.511719 C 971.664062 705.363281 975.894531 696.351562 981.0625 685.480469 C 991.992188 662.507812 1001.433594 642.289062 1001.433594 641.863281 C 1001.433594 641.699219 1003.429688 637.40625 1005.867188 632.328125 C 1008.304688 627.246094 1013.597656 615.996094 1017.621094 607.324219 C 1028.578125 583.722656 1047.707031 542.699219 1055.605469 525.859375 C 1059.445312 517.667969 1069.082031 496.910156 1077.011719 479.726562 C 1084.945312 462.542969 1092.492188 446.25 1093.789062 443.519531 C 1095.082031 440.789062 1098.496094 433.429688 1101.375 427.167969 C 1108.4375 411.808594 1111.839844 405.070312 1117.582031 395.050781 C 1132.832031 368.4375 1149.59375 346.742188 1173.34375 322.871094 C 1192.527344 303.589844 1209.328125 289.953125 1229.386719 277.386719 C 1233.882812 274.570312 1237.808594 272.035156 1238.113281 271.753906 C 1238.882812 271.050781 1235.109375 271.222656 1228.804688 272.171875 M 1245.585938 283.003906 C 1221.726562 300.992188 1207.976562 313.339844 1186.65625 335.914062 C 1167.691406 355.996094 1154.761719 372.257812 1142.414062 391.546875 C 1134.699219 403.601562 1130.863281 411.011719 1116.101562 442.351562 C 1113.394531 448.097656 1110.683594 453.839844 1107.964844 459.578125 C 1104.011719 467.921875 1101.839844 472.683594 1101.839844 473.023438 C 1101.839844 473.171875 1100.5 475.988281 1098.859375 479.28125 C 1097.222656 482.578125 1092.78125 491.972656 1088.992188 500.164062 C 1085.199219 508.355469 1080.925781 517.550781 1079.492188 520.601562 L 1074.832031 530.53125 C 1073.152344 534.125 1071.492188 537.726562 1069.851562 541.335938 C 1068.242188 544.867188 1063.71875 554.589844 1059.800781 562.941406 C 1055.878906 571.292969 1050.0625 583.773438 1046.875 590.679688 C 1043.6875 597.585938 1038.980469 607.628906 1036.417969 612.996094 C 1033.855469 618.363281 1030.476562 625.597656 1028.914062 629.070312 C 1027.347656 632.542969 1024.433594 638.792969 1022.441406 642.960938 C 1020.449219 647.128906 1017.03125 654.480469 1014.851562 659.296875 C 1012.671875 664.113281 1009 671.996094 1006.695312 676.816406 C 1004.386719 681.632812 1001.316406 688.203125 999.875 691.414062 C 998.433594 694.625 996.179688 699.488281 994.871094 702.21875 C 990.714844 710.875 978.082031 737.820312 974.195312 746.308594 C 972.136719 750.804688 970.210938 755.007812 969.917969 755.652344 C 969.621094 756.292969 966.835938 762.207031 963.726562 768.792969 C 960.617188 775.375 956.035156 785.230469 953.542969 790.691406 C 947.140625 804.726562 936.496094 827.644531 933.335938 834.195312 C 931.863281 837.246094 928.625 844.210938 926.140625 849.671875 C 923.65625 855.132812 920.5 861.832031 919.125 864.5625 C 917.75 867.292969 914.59375 873.992188 912.109375 879.453125 C 909.625 884.914062 906 892.667969 904.054688 896.679688 C 902.105469 900.695312 898.289062 908.84375 895.570312 914.785156 C 892.21875 922.097656 888.828125 929.398438 885.410156 936.683594 C 880.886719 946.3125 876.375 955.949219 871.875 965.589844 C 867.304688 975.386719 861.183594 988.394531 858.273438 994.496094 C 855.363281 1000.597656 852.398438 1006.90625 851.683594 1008.511719 C 849.550781 1013.304688 834.335938 1045.816406 829.945312 1054.964844 C 827.703125 1059.636719 824.097656 1067.519531 821.929688 1072.484375 C 819.765625 1077.445312 816.730469 1083.875 815.1875 1086.765625 C 812.816406 1091.203125 810.03125 1097.09375 804.84375 1108.664062 C 804.339844 1109.785156 802.113281 1114.515625 799.894531 1119.175781 C 797.679688 1123.832031 793.878906 1131.976562 791.449219 1137.277344 C 789.015625 1142.578125 786.835938 1147.175781 786.597656 1147.496094 C 786.359375 1147.816406 784.0625 1152.679688 781.488281 1158.300781 C 778.914062 1163.921875 773.671875 1175.222656 769.835938 1183.410156 C 766.003906 1191.601562 762.5625 1199.222656 762.191406 1200.347656 C 761.820312 1201.46875 759.457031 1206.464844 756.941406 1211.441406 C 754.425781 1216.421875 750.636719 1224.304688 748.523438 1228.960938 C 746.40625 1233.617188 743.109375 1240.714844 741.191406 1244.726562 C 738.648438 1250.074219 736.125 1255.425781 733.617188 1260.789062 C 731.367188 1265.605469 727.503906 1273.75 725.027344 1278.890625 C 722.550781 1284.03125 720.398438 1289.152344 720.242188 1290.277344 C 719.992188 1292.050781 722.058594 1296.585938 735.875 1324.585938 C 744.628906 1342.332031 752.085938 1356.851562 752.4375 1356.851562 C 752.789062 1356.851562 753.835938 1355.078125 754.761719 1352.910156 C 756.699219 1348.355469 765.585938 1329.101562 770.863281 1318.015625 C 772.851562 1313.839844 775.996094 1307.140625 777.851562 1303.125 C 779.710938 1299.109375 784.441406 1288.992188 788.363281 1280.640625 C 792.289062 1272.292969 798.722656 1258.496094 802.664062 1249.984375 C 806.605469 1241.472656 812.125 1229.648438 814.929688 1223.707031 C 817.738281 1217.761719 824.308594 1203.703125 829.53125 1192.460938 C 840.035156 1169.859375 856.25 1135.167969 859.277344 1128.808594 C 860.351562 1126.5625 863.589844 1119.597656 866.476562 1113.335938 C 872.03125 1101.285156 874.964844 1095.054688 881.695312 1081.015625 C 883.980469 1076.246094 885.851562 1072.257812 885.851562 1072.148438 C 885.851562 1071.886719 897.046875 1047.832031 901.609375 1038.292969 C 903.609375 1034.117188 906.101562 1028.730469 907.152344 1026.324219 C 908.921875 1022.265625 914.035156 1011.304688 921.460938 995.664062 C 923.136719 992.132812 928.652344 980.304688 933.71875 969.386719 C 938.785156 958.464844 944.242188 946.769531 945.839844 943.398438 C 951.496094 931.484375 953.753906 926.644531 958.507812 916.242188 C 961.152344 910.460938 966.34375 899.292969 970.046875 891.425781 C 973.75 883.554688 979.152344 871.992188 982.058594 865.730469 C 984.960938 859.46875 988.929688 850.984375 990.882812 846.875 C 992.832031 842.765625 994.429688 839.296875 994.429688 839.164062 C 994.429688 839.027344 998.269531 830.695312 1002.960938 820.644531 C 1007.652344 810.59375 1013.535156 797.902344 1016.035156 792.441406 C 1019.210938 785.515625 1022.421875 778.605469 1025.664062 771.710938 C 1029.179688 764.226562 1032.675781 756.734375 1036.140625 749.226562 C 1039.105469 742.804688 1044.695312 730.847656 1048.566406 722.65625 C 1052.433594 714.46875 1059.597656 699.09375 1064.484375 688.496094 C 1080.292969 654.210938 1087.882812 637.78125 1089.984375 633.308594 C 1097.015625 618.347656 1105.234375 600.691406 1107.390625 595.898438 C 1108.777344 592.828125 1113.578125 582.582031 1118.066406 573.125 C 1122.554688 563.667969 1126.941406 554.226562 1127.816406 552.136719 C 1128.691406 550.050781 1130.207031 546.765625 1131.183594 544.835938 C 1132.15625 542.910156 1134.070312 538.835938 1135.429688 535.785156 C 1136.789062 532.734375 1141.046875 523.539062 1144.894531 515.347656 C 1148.742188 507.15625 1155.578125 492.574219 1160.085938 482.9375 C 1169.652344 462.480469 1177.054688 446.714844 1180.863281 438.679688 C 1182.785156 434.601562 1184.683594 430.515625 1186.554688 426.414062 C 1188.199219 422.8125 1191.964844 414.742188 1194.929688 408.480469 C 1197.890625 402.21875 1200.984375 395.648438 1201.804688 393.882812 C 1211.671875 372.644531 1219.96875 354.90625 1221.476562 351.835938 C 1223.238281 348.25 1235.476562 322.125 1249.617188 291.765625 C 1253.113281 284.265625 1256.363281 277.570312 1256.835938 276.890625 C 1257.84375 275.453125 1257.933594 274.75 1257.113281 274.75 C 1256.792969 274.75 1251.605469 278.464844 1245.585938 283.003906 M 1219.148438 422.058594 C 1217.566406 425.351562 1216.265625 428.507812 1216.261719 429.078125 C 1216.257812 429.648438 1218.835938 433.984375 1221.992188 438.714844 C 1233.792969 456.402344 1242.371094 471.511719 1255.988281 498.589844 C 1266.773438 520.039062 1279.449219 548.679688 1278.550781 549.578125 C 1278.261719 549.863281 1261.539062 544.113281 1252.15625 540.496094 C 1247.511719 538.707031 1226.503906 531.40625 1219.410156 529.117188 C 1215.847656 527.96875 1212.527344 526.566406 1212.03125 526.003906 C 1211.535156 525.441406 1208.765625 520.382812 1205.878906 514.761719 C 1200.808594 504.886719 1193.390625 491.691406 1191 488.292969 C 1190.222656 487.183594 1189.648438 486.835938 1189.253906 487.230469 C 1188.363281 488.121094 1182.980469 500.679688 1182.980469 501.871094 C 1182.980469 502.441406 1183.59375 504.066406 1184.34375 505.480469 C 1188.910156 514.082031 1197.707031 531.753906 1197.511719 531.9375 C 1196.484375 532.898438 1178.609375 545.5 1174.203125 548.371094 C 1168.308594 552.210938 1161.878906 555.617188 1158.40625 556.746094 C 1156.476562 557.371094 1156.042969 557.976562 1153.027344 564.261719 C 1151.222656 568.023438 1149.9375 571.28125 1150.164062 571.5 C 1150.613281 571.925781 1158.378906 570.386719 1164.050781 568.75 C 1171.472656 566.609375 1184.496094 558.691406 1205.980469 543.261719 C 1207.230469 542.363281 1208.9375 541.628906 1209.773438 541.632812 C 1211.507812 541.640625 1249.648438 554.339844 1270.015625 561.6875 C 1282.273438 566.109375 1301.035156 572.578125 1301.605469 572.578125 C 1301.902344 572.578125 1301.96875 571.984375 1301.753906 571.261719 C 1301.160156 569.253906 1294.484375 550.253906 1293.90625 548.925781 C 1293.625 548.285156 1291.640625 543.300781 1289.492188 537.855469 C 1282.132812 519.175781 1267.707031 489.003906 1256.257812 468.335938 C 1253.746094 463.804688 1245.875 450.03125 1244.648438 448.015625 C 1241.597656 443.019531 1235.421875 433.296875 1233.445312 430.378906 L 1227.40625 421.472656 C 1225.394531 418.503906 1223.359375 416.070312 1222.886719 416.070312 C 1222.371094 416.070312 1220.867188 418.476562 1219.148438 422.058594 M 332.164062 618.117188 C 306.613281 620.507812 280.1875 627.957031 257.777344 639.078125 C 243.25 646.289062 227.363281 656.949219 214.472656 668.132812 C 192.847656 686.894531 174.191406 716.085938 164.015625 747.089844 C 156.1875 770.929688 152.078125 797.605469 152.078125 824.53125 C 152.078125 849.988281 157.023438 891.957031 163.769531 923.765625 C 167.828125 942.910156 171.046875 954.890625 179.226562 981.355469 C 184.007812 996.820312 192.4375 1019.0625 199.800781 1035.648438 C 210.511719 1059.765625 226.804688 1090.730469 237.601562 1107.496094 C 238.324219 1108.617188 240.171875 1111.507812 241.703125 1113.917969 C 275.351562 1166.800781 318.640625 1214.738281 369.949219 1255.929688 C 391.46875 1273.207031 410.074219 1286.175781 433.445312 1300.195312 C 469.441406 1321.785156 492.847656 1333.074219 538.226562 1350.726562 C 564.53125 1360.957031 613.050781 1373.613281 646.671875 1379.011719 C 655.414062 1380.417969 657.261719 1380.5 656.855469 1379.480469 C 656.695312 1379.078125 652.03125 1372.046875 646.488281 1363.859375 C 638.734375 1352.386719 631 1340.902344 623.285156 1329.402344 C 607.699219 1306.179688 607.859375 1306.394531 605.460938 1305.253906 C 604.421875 1304.765625 597.933594 1302.757812 591.039062 1300.796875 C 516.097656 1279.480469 452.453125 1245.5625 395.5 1196.589844 C 370.386719 1174.996094 347.398438 1151.332031 326.539062 1125.597656 C 300.800781 1093.832031 273.902344 1050.125 258.621094 1015.226562 C 257.566406 1012.816406 255.605469 1008.351562 254.265625 1005.300781 C 249.964844 995.507812 238.695312 964.199219 236.714844 956.539062 C 236.464844 955.574219 235.289062 951.5 234.097656 947.488281 C 226.847656 922.980469 222.007812 897.398438 218.300781 863.976562 C 217.042969 852.636719 216.523438 823.296875 217.398438 813.136719 C 218.707031 797.992188 222.753906 780.5 227.796875 768.207031 C 230.140625 762.484375 236.550781 749.523438 238.777344 745.996094 C 246.496094 733.765625 258.113281 721.191406 271.164062 710.949219 C 286.09375 699.230469 306.988281 689.25 327.203125 684.183594 C 336.28125 681.910156 352.777344 680.304688 362.011719 680.796875 C 391.429688 682.367188 421.265625 699.355469 437.304688 723.667969 C 442.632812 731.746094 445.855469 738.0625 481.316406 809.960938 C 487.96875 823.449219 503.527344 854.984375 515.890625 880.039062 C 528.257812 905.089844 544.074219 937.148438 551.042969 951.28125 C 566.921875 983.476562 581.109375 1012.160156 603.472656 1057.273438 C 613.101562 1076.703125 625.773438 1102.328125 631.625 1114.210938 C 656.6875 1165.105469 685.640625 1223.695312 694.96875 1242.390625 C 700.5 1253.472656 705.632812 1263.917969 706.382812 1265.605469 C 707.132812 1267.292969 707.980469 1268.671875 708.273438 1268.671875 C 708.5625 1268.671875 709.609375 1266.898438 710.597656 1264.730469 C 716.949219 1250.800781 726.992188 1229.148438 730.441406 1221.953125 C 738.371094 1205.414062 739.484375 1202.699219 739.164062 1200.726562 C 739 1199.710938 734.042969 1189.15625 728.148438 1177.273438 C 722.253906 1165.394531 714.824219 1150.285156 711.640625 1143.699219 C 708.453125 1137.117188 698.839844 1117.539062 690.277344 1100.195312 C 681.710938 1082.851562 672.394531 1063.929688 669.578125 1058.148438 C 666.757812 1052.367188 655.257812 1029.109375 644.027344 1006.46875 C 632.792969 983.824219 619.859375 957.675781 615.28125 948.363281 C 610.707031 939.046875 597.96875 913.296875 586.976562 891.132812 C 575.980469 868.972656 560.613281 837.832031 552.820312 821.933594 C 523.859375 762.835938 493.035156 701.132812 489.222656 694.625 C 476.855469 673.53125 460.859375 657.722656 437.238281 643.25 C 421.660156 633.703125 399.675781 624.921875 382.367188 621.328125 C 367.460938 618.234375 345.738281 616.84375 332.164062 618.117188 M 305.894531 711.914062 C 289.984375 719.988281 280.746094 726.535156 270.851562 736.757812 C 258.859375 749.144531 251.441406 760.992188 245.414062 777.371094 C 239.984375 792.132812 238.007812 801.019531 236.414062 817.84375 C 235.347656 829.121094 235.347656 836.269531 236.414062 849.671875 C 238.25 872.730469 240.8125 890.132812 246.125 915.660156 C 250.332031 935.863281 257.257812 958.890625 265.621094 980.480469 C 267.113281 984.335938 268.808594 988.800781 269.386719 990.410156 C 273.414062 1001.597656 285.695312 1027.292969 294.785156 1043.550781 C 300.945312 1054.566406 314.359375 1076.089844 321.535156 1086.472656 C 341.507812 1115.371094 368.71875 1146.273438 396.667969 1171.800781 C 420.378906 1193.457031 449.011719 1214.820312 474.015625 1229.515625 C 503.101562 1246.609375 530.828125 1259.917969 557.492188 1269.589844 C 561.34375 1270.984375 566.269531 1272.792969 568.4375 1273.601562 C 573.0625 1275.332031 596.550781 1282.6875 597.449219 1282.6875 C 598.398438 1282.6875 598.191406 1280.78125 596.550781 1274.324219 C 595.089844 1268.585938 589.320312 1244.058594 586.925781 1233.410156 C 584.777344 1223.859375 582.847656 1216.996094 582.132812 1216.363281 C 581.746094 1216.015625 575.910156 1213.546875 569.167969 1210.871094 C 552.769531 1204.367188 527.054688 1191.957031 511.960938 1183.265625 C 501.003906 1176.960938 479.773438 1163.058594 469.34375 1155.359375 C 445.277344 1137.597656 413.277344 1107.460938 393.402344 1083.84375 C 365.503906 1050.691406 340.246094 1009.3125 322.621094 967.882812 C 314.980469 949.929688 307.34375 927.355469 301.890625 906.609375 C 296.148438 884.765625 291.75 857.375 289.789062 831.277344 C 289.007812 820.839844 289.394531 788.136719 290.40625 779.011719 C 293.804688 748.46875 299.753906 728.8125 310.300781 713.273438 C 311.570312 711.402344 312.609375 709.726562 312.609375 709.550781 C 312.609375 708.785156 310.824219 709.414062 305.894531 711.914062 M 1107.820312 733.605469 C 1107.210938 734.488281 1106.109375 736.65625 1105.367188 738.425781 C 1104.625 740.191406 1100.875 748.335938 1097.035156 756.527344 C 1087.554688 776.742188 1088.132812 775.503906 1080.925781 791.273438 C 1075.351562 803.472656 1059.613281 837.476562 1052.675781 852.300781 C 1051.398438 855.027344 1049.625 858.839844 1048.730469 860.765625 C 1047.835938 862.695312 1045.472656 867.6875 1043.476562 871.863281 C 1041.484375 876.039062 1037.402344 884.710938 1034.414062 891.132812 C 1031.421875 897.558594 1027 906.886719 1024.585938 911.863281 C 1022.167969 916.84375 1020.375 921.101562 1020.597656 921.332031 C 1020.820312 921.5625 1049.832031 921.800781 1085.0625 921.859375 C 1145.296875 921.964844 1149.121094 922.03125 1149.121094 922.980469 C 1149.121094 925.5 1142.054688 945.972656 1137.476562 956.714844 C 1126.585938 982.269531 1117.070312 1000.671875 1104.191406 1021.066406 C 1083.945312 1053.132812 1057.742188 1083.949219 1029.160156 1109.3125 C 1009.226562 1127.003906 997.105469 1136.1875 975.164062 1150.230469 C 954.445312 1163.492188 932.402344 1175.25 910.792969 1184.566406 C 904.941406 1187.089844 899.480469 1189.765625 898.660156 1190.515625 C 897.839844 1191.265625 896.039062 1194.507812 894.65625 1197.71875 C 893.277344 1200.929688 891.546875 1204.871094 890.816406 1206.476562 C 890.082031 1208.082031 888.238281 1212.289062 886.710938 1215.820312 C 885.1875 1219.355469 880.683594 1229.472656 876.703125 1238.304688 C 872.71875 1247.136719 868.820312 1255.808594 868.039062 1257.574219 C 866.519531 1261.019531 855.664062 1285.144531 853.460938 1289.984375 C 851.992188 1293.210938 850.011719 1297.628906 842.078125 1315.390625 C 834.875 1331.511719 834.351562 1332.695312 826.675781 1350.136719 C 823 1358.484375 818.691406 1368.078125 817.097656 1371.449219 C 815.507812 1374.824219 813.351562 1379.550781 812.308594 1381.960938 C 809.894531 1387.53125 808.847656 1389.863281 804.570312 1399.1875 C 799.203125 1410.886719 798.699219 1412.300781 799.753906 1412.703125 C 802.523438 1413.765625 852.382812 1406.175781 875.015625 1401.246094 C 903.359375 1395.070312 936.371094 1385.214844 964.074219 1374.660156 C 980.335938 1368.460938 1012.363281 1354.253906 1023.90625 1348.121094 C 1026.796875 1346.582031 1032.050781 1343.804688 1035.582031 1341.945312 C 1081.855469 1317.582031 1127.386719 1284.90625 1168.679688 1246.433594 C 1194.394531 1222.472656 1212.660156 1202.398438 1236.222656 1172.210938 C 1272.8125 1125.335938 1301.65625 1073.785156 1322.757812 1017.5625 C 1339.417969 973.171875 1351.457031 923.648438 1356.898438 877.117188 C 1361.535156 837.492188 1362.160156 795.667969 1358.667969 759.15625 C 1357.609375 748.074219 1356.328125 735.875 1356.015625 733.898438 L 1355.71875 732 L 1108.921875 732 Z M 1222.257812 745.285156 L 1115.308594 745.433594 L 1114.726562 747.625 C 1114.105469 749.953125 1112.035156 760.320312 1105.371094 794.484375 C 1100.417969 819.894531 1099.144531 825.640625 1097.984375 827.886719 C 1097.503906 828.816406 1089.816406 839.355469 1080.902344 851.304688 C 1063.414062 874.75 1062.933594 875.40625 1051.683594 891.160156 C 1042.214844 904.417969 1040.195312 907.765625 1041.238281 908.480469 C 1041.691406 908.792969 1067.605469 908.84375 1104.613281 908.613281 C 1154.234375 908.296875 1167.21875 908.363281 1167.21875 908.9375 C 1167.21875 910.914062 1161.691406 929.890625 1158.425781 939.121094 C 1148.613281 966.871094 1139.613281 986.738281 1125.800781 1011.140625 C 1120.441406 1020.609375 1107.152344 1041.042969 1099.953125 1050.894531 C 1074.460938 1085.769531 1042.25 1118.476562 1009.023438 1143.226562 C 992.917969 1155.222656 979.773438 1163.722656 957.671875 1176.425781 C 950.441406 1180.582031 929.320312 1191.183594 920.875 1194.898438 C 909.976562 1199.6875 906.628906 1201.371094 905.96875 1202.390625 C 905.21875 1203.542969 904.40625 1207.082031 898.671875 1234.214844 C 892.257812 1264.554688 887.355469 1286.664062 886.164062 1290.632812 C 885.671875 1292.273438 883.054688 1297.003906 880.34375 1301.144531 C 876.878906 1306.460938 873.441406 1311.789062 870.03125 1317.140625 C 867.070312 1321.796875 861.390625 1330.601562 857.410156 1336.703125 C 846.152344 1353.96875 839.40625 1364.390625 836.816406 1368.53125 C 835.507812 1370.617188 831.433594 1376.925781 827.761719 1382.546875 C 820.085938 1394.289062 818.898438 1396.351562 819.484375 1396.9375 C 819.71875 1397.167969 822.859375 1396.90625 826.464844 1396.351562 C 830.070312 1395.792969 836.304688 1394.835938 840.320312 1394.21875 C 867.960938 1389.980469 910.957031 1379.148438 937.8125 1369.664062 C 943.425781 1367.683594 950.121094 1365.328125 952.691406 1364.429688 C 977.675781 1355.691406 1022.050781 1334.96875 1045.796875 1320.945312 C 1089.671875 1295.039062 1117.871094 1274.332031 1155.835938 1240.144531 C 1171.417969 1226.113281 1189.050781 1207.945312 1206.089844 1188.371094 C 1214.9375 1178.199219 1232.898438 1154.933594 1243.523438 1139.875 C 1252.777344 1126.757812 1270.125 1098.667969 1275.785156 1087.640625 C 1277.1875 1084.910156 1279.625 1080.3125 1281.203125 1077.421875 C 1288.449219 1064.164062 1298.429688 1042.367188 1306.878906 1021.359375 C 1318.210938 993.171875 1329.316406 955.859375 1335.902344 923.835938 C 1339.050781 908.511719 1342.761719 884.757812 1344.066406 871.570312 C 1347.296875 838.835938 1348.324219 814.875 1347.53125 790.691406 C 1347.269531 782.660156 1346.910156 775.171875 1346.730469 774.046875 C 1346.550781 772.921875 1345.914062 766.175781 1345.316406 759.058594 C 1344.714844 751.9375 1344.046875 745.828125 1343.832031 745.480469 C 1343.578125 745.070312 1340.957031 744.898438 1336.324219 744.992188 C 1332.410156 745.070312 1281.082031 745.203125 1222.257812 745.285156 M 1217.003906 759.300781 L 1126.984375 759.449219 L 1126.40625 761.640625 C 1126.089844 762.84375 1125.140625 767.375 1124.296875 771.710938 C 1123.453125 776.046875 1121.621094 785.375 1120.226562 792.441406 C 1115.835938 814.6875 1115.632812 816.007812 1116.457031 816.996094 C 1117.101562 817.777344 1125.34375 817.863281 1187.652344 817.714844 L 1258.121094 817.550781 L 1263.308594 812.90625 C 1266.164062 810.351562 1271.386719 805.460938 1274.921875 802.042969 C 1278.453125 798.625 1289.878906 787.738281 1300.3125 777.851562 C 1310.746094 767.960938 1319.371094 759.644531 1319.480469 759.367188 C 1319.585938 759.089844 1316.828125 758.929688 1313.351562 759.007812 C 1309.871094 759.085938 1266.515625 759.21875 1217.003906 759.300781 M 1323.660156 778.292969 C 1314.789062 786.976562 1279.46875 821.308594 1273.625 826.929688 L 1269.414062 830.984375 L 1268.5 844.125 C 1267.589844 857.195312 1265.175781 880.625 1264.105469 886.753906 C 1263.796875 888.519531 1263.148438 892.855469 1262.667969 896.390625 C 1260.992188 908.722656 1260.589844 911.011719 1259.492188 914.492188 C 1258.882812 916.417969 1257.417969 922.199219 1256.230469 927.339844 C 1248.453125 961.109375 1236.910156 994.054688 1221.65625 1026.007812 C 1203.785156 1063.449219 1178.019531 1103.371094 1151.546875 1134.648438 C 1129.996094 1160.113281 1097.210938 1191.878906 1073.375 1210.386719 C 1060.488281 1220.394531 1059.722656 1220.964844 1049.882812 1227.890625 C 1007.199219 1257.925781 954.957031 1283.914062 906.867188 1299.035156 C 901.566406 1300.703125 896.789062 1302.5 896.25 1303.035156 C 895.355469 1303.914062 886.042969 1318.179688 873.511719 1337.871094 C 867.535156 1347.269531 862.253906 1355.40625 853.808594 1368.238281 C 849.371094 1374.984375 847.542969 1378.222656 848.109375 1378.339844 C 851.195312 1378.996094 901.277344 1366.644531 919.125 1360.832031 C 952.054688 1350.101562 978.789062 1339.265625 1006.757812 1325.308594 C 1063.066406 1297.203125 1106.984375 1266.457031 1153.390625 1222.65625 C 1197.296875 1181.21875 1233.855469 1133.941406 1263.222656 1080.632812 C 1266.828125 1074.085938 1281.296875 1044.765625 1285.125 1036.25 C 1292.867188 1019.03125 1299.753906 1000.785156 1306.625 979.3125 C 1310.640625 966.75 1311.496094 963.820312 1314.960938 950.699219 C 1327.890625 901.765625 1334.304688 849.417969 1333.375 800.425781 C 1332.945312 777.714844 1332.550781 771.121094 1331.613281 771.136719 C 1331.253906 771.144531 1327.675781 774.363281 1323.660156 778.292969 M 1108.988281 837.550781 C 1108.351562 838.113281 1106.300781 840.679688 1104.4375 843.246094 C 1102.570312 845.816406 1098.375 851.464844 1095.117188 855.800781 C 1091.855469 860.140625 1085.8125 868.417969 1081.6875 874.199219 C 1077.5625 879.980469 1072.515625 886.878906 1070.472656 889.527344 L 1066.761719 894.34375 L 1125.765625 894.34375 C 1173.71875 894.34375 1184.820312 894.488281 1185.058594 895.105469 C 1185.375 895.925781 1182.839844 906.8125 1180.140625 916.242188 C 1179.222656 919.457031 1177.65625 924.972656 1176.667969 928.507812 C 1171.648438 946.390625 1165.972656 961.8125 1156.566406 983.109375 C 1154.097656 988.695312 1142.105469 1012.300781 1138.914062 1017.855469 C 1124.730469 1042.53125 1107.199219 1067.101562 1086.992188 1090.621094 C 1080.316406 1098.390625 1054.929688 1123.800781 1047.046875 1130.601562 C 1029.835938 1145.449219 1015.144531 1156.855469 1000.882812 1166.429688 C 974.21875 1184.332031 958.511719 1193.132812 926.746094 1207.96875 C 920.964844 1210.671875 918.175781 1212.289062 917.871094 1213.117188 C 917.144531 1215.082031 911.445312 1241.085938 907.679688 1259.621094 C 906.894531 1263.472656 905.605469 1269.289062 904.808594 1272.546875 C 904.011719 1275.800781 903.363281 1278.789062 903.363281 1279.183594 C 903.363281 1280.136719 904.394531 1279.871094 914.160156 1276.394531 C 996.054688 1247.238281 1071.171875 1196.957031 1125.910156 1134.648438 C 1139.816406 1118.820312 1140.410156 1118.117188 1146.851562 1109.832031 C 1159.503906 1093.558594 1166.910156 1083.09375 1176.613281 1067.785156 C 1195.21875 1038.429688 1210.230469 1007.757812 1222.488281 974.058594 C 1229.535156 954.6875 1237.421875 926.636719 1240.191406 911.09375 C 1240.867188 907.300781 1241.535156 903.882812 1241.671875 903.503906 C 1242.167969 902.144531 1246.085938 878.160156 1246.886719 871.570312 C 1248.28125 860.113281 1249.628906 843.402344 1249.425781 840.035156 L 1249.234375 836.824219 L 1179.691406 836.675781 C 1114.101562 836.535156 1110.078125 836.585938 1108.988281 837.550781 " fill-opacity="1" fill-rule="evenodd"/></svg>